Coordinates
version=1
nRows=18
nColumns=22
inDegrees=yes

Units are S.I. units (second, meters, Newtons, ...)
If the header above contains a line with 'inDegrees', this indicates whether rotational values are in degrees (yes) or radians (no).

endheader
time	pelvis_tilt	pelvis_list	pelvis_rotation	pelvis_tx	pelvis_ty	pelvis_tz	hip_flexion_r	hip_adduction_r	hip_rotation_r	knee_angle_r	ankle_angle_r	subtalar_angle_r	hip_flexion_l	hip_adduction_l	hip_rotation_l	knee_angle_l	ankle_angle_l	subtalar_angle_l	lumbar_extension	lumbar_bending	lumbar_rotation
      4.65000000	      0.85519193	     -6.48214621	     15.24599539	      1.04501949	      0.95903920	     -0.29258167	     18.84402342	      5.47418448	    -10.07203069	    -23.71228511	      2.83095141	      1.03526075	      9.92470457	     -8.51676587	     13.07814331	    -54.25098597	     10.18066511	      9.31294682	     -0.95775678	      6.97373327	     -7.67761168
      4.66000000	      0.82996139	     -6.60784411	     15.18732007	      1.04997978	      0.95959692	     -0.29155400	     18.45107264	      5.79237123	    -10.02785693	    -23.43230829	      2.98945341	      0.91110825	     10.64926261	     -8.66408807	     13.07249693	    -54.28792960	     10.62569738	      7.91466057	     -0.96434160	      7.06192804	     -7.46473657
      4.67000000	      0.79318327	     -6.70711393	     15.12854718	      1.05478182	      0.96016212	     -0.29062377	     18.05395839	      6.07378949	     -9.96437989	    -23.12563766	      3.13558116	      0.81283354	     11.31644106	     -8.74466963	     13.11089206	    -54.11951765	     11.07192557	      6.80806610	     -0.96681098	      7.12585813	     -7.27020614
      4.68000000	      0.75043708	     -6.79873429	     15.06772302	      1.05943412	      0.96071691	     -0.28977026	     17.65764036	      6.33911799	     -9.88878946	    -22.80210786	      3.27310941	      0.74677403	     11.93326716	     -8.78813759	     13.18265793	    -53.76931556	     11.52485026	      6.03857354	     -0.96713022	      7.18593990	     -7.05737624
      4.69000000	      0.69985387	     -6.85376982	     15.00376542	      1.06397405	      0.96126520	     -0.28900910	     17.26147622	      6.54942532	     -9.84460589	    -22.47839914	      3.43593792	      0.69936565	     12.48365469	     -8.77585461	     13.25727477	    -53.23400893	     11.99227579	      5.49176811	     -0.96737327	      7.20913002	     -6.85501459
      4.70000000	      0.63052359	     -6.88911709	     14.94164104	      1.06840369	      0.96178618	     -0.28832907	     16.88630736	      6.72148516	     -9.81665923	    -22.16237855	      3.61330789	      0.67782884	     12.98890477	     -8.73173271	     13.33215913	    -52.52656141	     12.48179497	      5.23721951	     -0.94948424	      7.21159550	     -6.68880888
      4.71000000	      0.56630564	     -6.92350751	     14.89057819	      1.07269729	      0.96229811	     -0.28772054	     16.48787945	      6.88924234	     -9.78061032	    -21.80083691	      3.77193268	      0.67497618	     13.45605759	     -8.68163979	     13.41271505	    -51.69541508	     12.93238982	      5.04269619	     -0.93968809	      7.21675665	     -6.51558964
      4.72000000	      0.49557631	     -6.94934601	     14.84541344	      1.07688358	      0.96278358	     -0.28718819	     16.10056614	      7.03611539	     -9.75116895	    -21.44360942	      3.93968907	      0.69124856	     13.88284258	     -8.62701528	     13.47428617	    -50.73204755	     13.38408317	      4.96622422	     -0.92317896	      7.21725426	     -6.36737537
      4.73000000	      0.43753327	     -6.97392669	     14.80426758	      1.08097066	      0.96325962	     -0.28670386	     15.69785750	      7.18001754	     -9.71549120	    -21.07406154	      4.11003148	      0.73875205	     14.25948013	     -8.58699618	     13.51022963	    -49.66029824	     13.83536533	      4.98530051	     -0.92099023	      7.22112788	     -6.22276666
      4.74000000	      0.37598772	     -6.99155783	     14.76834304	      1.08495404	      0.96370221	     -0.28628058	     15.30342776	      7.30717316	     -9.68831351	    -20.70733487	      4.28683016	      0.80896327	     14.60874728	     -8.55144972	     13.51066806	    -48.50084168	     14.27900512	      5.07773126	     -0.91591755	      7.21917659	     -6.10000949
      4.75000000	      0.31344964	     -7.00530429	     14.73620710	      1.08883286	      0.96410770	     -0.28590948	     14.92138136	      7.42201976	     -9.66597240	    -20.35278558	      4.46777657	      0.88723522	     14.93245588	     -8.52543041	     13.47237467	    -47.26899109	     14.70853812	      5.18935880	     -0.91083259	      7.21472055	     -5.99247528
      4.76000000	      0.25028029	     -7.01002244	     14.71075184	      1.09260877	      0.96448611	     -0.28560487	     14.54697413	      7.51985541	     -9.64144740	    -20.00562819	      4.64659607	      0.97180244	     15.22848295	     -8.49564556	     13.41022150	    -45.97662560	     15.09613010	      5.29903030	     -0.90628194	      7.20405134	     -5.90435179
      4.77000000	      0.18569573	     -7.00683195	     14.68793889	      1.09628449	      0.96483166	     -0.28536029	     14.18697765	      7.60272617	     -9.61452625	    -19.67628963	      4.82234231	      1.04864868	     15.49794493	     -8.45986491	     13.32774143	    -44.63834046	     15.43539963	      5.38347620	     -0.90166310	      7.18626395	     -5.83098591
      4.78000000	      0.12504865	     -6.99207875	     14.66783574	      1.09986188	      0.96516208	     -0.28518997	     13.83237524	      7.66852118	     -9.57637429	    -19.36070718	      4.99169861	      1.12160486	     15.72947733	     -8.40890181	     13.24290099	    -43.25864216	     15.70714871	      5.44951566	     -0.90375747	      7.16199624	     -5.76787752
      4.79000000	      0.06572632	     -6.96644700	     14.64509276	      1.10335570	      0.96547082	     -0.28506144	     13.48521193	      7.71962437	     -9.53482099	    -19.05841833	      5.15499522	      1.18601443	     15.92631184	     -8.34216975	     13.16374833	    -41.85432805	     15.90761469	      5.49576556	     -0.90843468	      7.12444990	     -5.71257931
      4.80000000	      0.00775726	     -6.92987031	     14.62195421	      1.10675803	      0.96576024	     -0.28501494	     13.14685365	      7.75340888	     -9.48135131	    -18.77240447	      5.31010197	      1.23847533	     16.08630329	     -8.25435810	     13.10250591	    -40.43274509	     16.04251086	      5.52669784	     -0.91539581	      7.08196882	     -5.66770266
      4.81000000	     -0.04933787	     -6.88578931	     14.59578171	      1.11008051	      0.96603136	     -0.28502316	     12.81698214	      7.77521869	     -9.42061040	    -18.49980554	      5.45744640	      1.27895752	     16.20956914	     -8.15077493	     13.06793690	    -39.00138467	     16.11581245	      5.55009723	     -0.92258936	      7.03334694	     -5.63062720
      4.82000000	     -0.10481942	     -6.83698415	     14.56582917	      1.11332608	      0.96628396	     -0.28507439	     12.49466000	      7.78942119	     -9.34919970	    -18.23861898	      5.59697027	      1.30942240	     16.29565485	     -8.03679554	     13.06751371	    -37.56850961	     16.14029087	      5.57202050	     -0.93014153	      6.98055544	     -5.60131170
